<svg xmlns="http://www.w3.org/2000/svg" xmlns:xlink="http://www.w3.org/1999/xlink" xml:space="preserve" version="1.1" style="shape-rendering:geometricPrecision;text-rendering:geometricPrecision;image-rendering:optimizeQuality;" viewBox="0 0 846.66 1058.325" x="0px" y="0px" fill-rule="evenodd" clip-rule="evenodd"><defs><style type="text/css">
   
    .fil0 {fill:black;fill-rule:nonzero}
   
  </style></defs><g><path class="fil0" d="M472.83 261.09l66.22 -16.14 116.91 75 0 455.35 58.01 0 0 31.92c-193.76,0 -387.52,0 -581.28,0l0 -31.92 58.02 0 0 -705.44 124.87 -30.42 157.25 100.88 0 120.77zm108.14 380.42l43.31 0 0 -43.54 -43.31 0 0 -46.06 43.31 0 0 -43.54 -43.31 0 0 -46.06 43.31 0 0 -43.54 -43.31 0 0 -46.06 43.31 0 0 -35.51 -78.27 -50.2 0 488.3 78.27 0 0 -87.73 -43.31 0 0 -46.06zm-203.06 -100.61l63.23 0 0 -43.53 -63.23 0 0 -46.07 63.23 0 0 -43.53 -63.23 0 0 -46.07 63.23 0 0 -43.53 -63.23 0 0 -46.07 63.23 0 0 -43.54 -63.23 0 0 -46.06 63.23 0 0 -24.93 -115.45 -74.06 0 691.79 115.45 0 0 -188.33 -63.23 0 0 -46.07zm136.42 234.4l0 -491.82 -38.78 9.45 0 482.37 38.78 0zm-220.33 0l0 -698.1 -71.61 17.45 0 680.65 71.61 0z"/></g><text x="0" y="861.66" fill="#000000" font-size="5px" font-weight="bold" font-family="'Helvetica Neue', Helvetica, Arial-Unicode, Arial, Sans-serif">Created by wardehpillai</text><text x="0" y="866.66" fill="#000000" font-size="5px" font-weight="bold" font-family="'Helvetica Neue', Helvetica, Arial-Unicode, Arial, Sans-serif">from the Noun Project</text></svg>